<?xml version="1.0" encoding="utf-8"?><svg version="1.1" id="Layer_1" xmlns="http://www.w3.org/2000/svg" xmlns:xlink="http://www.w3.org/1999/xlink" x="0px" y="0px" viewBox="0 0 86.23 122.88" style="enable-background:new 0 0 86.23 122.88" xml:space="preserve"><style type="text/css">.st0{fill-rule:evenodd;clip-rule:evenodd;}</style><g><path class="st0" d="M59.13,53.36c2.27,0,4.11,1.84,4.11,4.11c0,2.27-1.84,4.11-4.11,4.11c-2.27,0-4.11-1.84-4.11-4.11 C55.02,55.2,56.86,53.36,59.13,53.36L59.13,53.36z M28.06,53.36c2.27,0,4.11,1.84,4.11,4.11c0,2.27-1.84,4.11-4.11,4.11 s-4.11-1.84-4.11-4.11C23.95,55.2,25.79,53.36,28.06,53.36L28.06,53.36z M30.27,71.56h25.09c2.33-0.09,2.93,1.14,2.15,2.84 c-6.71,15.13-28.81,7.68-29.1-0.21C28.37,73.03,28.96,71.66,30.27,71.56L30.27,71.56z M82.34,122.88 c-0.44-2.06-0.99-3.84-1.64-5.38c-2.81-6.62-9.81-9.64-16.68-12.6c-1.16-0.5-2.32-1-3.54-1.56c-0.16,0.2-0.31,0.39-0.48,0.58 c-0.94,1.16-2.05,2.18-3.28,3.08c-3.42,2.47-7.82,3.89-12.36,4.11c-4.53,0.22-9.21-0.74-13.21-3.03c-1.99-1.14-3.81-2.61-5.36-4.42 c-1.1,0.53-2.23,1.04-3.39,1.57c-6.6,3.01-14.05,6.41-16.77,12.07c-0.64,1.34-1.15,2.82-1.51,4.42c-0.09,0.38-0.16,0.76-0.23,1.15 H0c0.11-0.68,0.24-1.34,0.38-1.99c0.43-1.88,1.02-3.62,1.8-5.23c3.33-6.92,11.44-10.62,18.63-13.9c1.6-0.73,3.15-1.44,4.54-2.13 c0.95-1.25,1.73-2.59,2.33-4.03c0.52-1.23,0.9-2.53,1.16-3.9c-1.45-0.87-2.85-1.88-4.17-3.05c-5.39-4.79-9.16-8.69-11.59-13.21 c-2.47-4.58-3.5-9.67-3.37-16.75l0.39-20.47c0-0.22,0.04-0.43,0.11-0.62l-4.77-1.5C4.76,21.01,13.49,11.99,24.31,7.65 c3.94-1.58-2.66-10.21,6.41-6.89c12.11,4.43,38.98,10.46,45.34,18.07c5.17,6.18,5.38,9.53,5.26,17.59 c-0.04,2.62-0.44,4.91-1.65,5.77c-0.56,0.39-1.22,0.55-2,0.48v17.51c0,9.7-3.47,17.8-8.79,23.8c-3,3.38-6.59,6.1-10.48,8.05 c0.23,1.25,0.55,2.44,0.96,3.57c0.49,1.35,1.11,2.65,1.87,3.88c1.31,0.61,2.81,1.25,4.31,1.9c7.57,3.26,15.27,6.58,18.69,14.63 c0.79,1.85,1.44,3.99,1.94,6.48l0.08,0.38L82.34,122.88L82.34,122.88L82.34,122.88z M68.48,51.35c0.59,0.79,0.43,1.91-0.36,2.5 c-0.79,0.59-1.91,0.43-2.5-0.36c-1.43-1.91-2.96-2.92-4.57-3.3c-1.64-0.39-3.43-0.14-5.29,0.48c-0.94,0.31-1.95-0.19-2.26-1.13 c-0.31-0.94,0.19-1.95,1.13-2.26c2.45-0.83,4.88-1.14,7.23-0.58C64.26,47.28,66.49,48.71,68.48,51.35L68.48,51.35z M25.35,46.71 c2.35-0.56,4.78-0.25,7.23,0.58c0.94,0.31,1.44,1.33,1.13,2.26c-0.31,0.94-1.33,1.44-2.26,1.13c-1.85-0.63-3.64-0.87-5.29-0.48 c-1.6,0.38-3.14,1.39-4.57,3.3c-0.59,0.79-1.71,0.95-2.5,0.36c-0.79-0.59-0.95-1.71-0.36-2.5C20.72,48.71,22.96,47.28,25.35,46.71 L25.35,46.71z M36.01,94.7c-1.23-0.32-2.44-0.73-3.63-1.22c-0.29,1.25-0.68,2.45-1.17,3.6c-0.61,1.45-1.38,2.84-2.3,4.15 c1.02,1.13,2.18,2.1,3.43,2.91c3.38,2.19,7.46,3.22,11.47,3.12c3.99-0.1,7.89-1.32,10.93-3.62c0.81-0.61,1.56-1.3,2.23-2.07 c0.2-0.24,0.39-0.5,0.57-0.75c-0.71-1.24-1.31-2.54-1.8-3.92c-0.38-1.05-0.69-2.13-0.94-3.24c-3.9,1.4-7.85,2.09-11.72,2.03 C40.69,95.65,38.32,95.33,36.01,94.7L36.01,94.7L36.01,94.7z M31.98,89.03c1.27,0.67,2.56,1.21,3.89,1.64l0.05,0.02 c2.44,0.75,4.99,1.12,7.55,1.12c4.11,0,8.27-0.93,12.13-2.69c3.88-1.76,7.46-4.35,10.39-7.66c4.73-5.34,7.82-12.57,7.82-21.27 V42.45h0.01c-0.04-1.22-0.22-2.34-0.55-3.36c-0.32-0.98-0.78-1.84-1.4-2.57c-2.35-2.76-4.58-2.65-7.76-2.48 c-0.29,0.01-0.57,0.03-0.98,0.05c-12.58,0.55-20.82,0.54-27.5-0.04C29.47,33.5,24.63,32.49,18.99,31 c-0.53,1.25-1.15,2.47-1.87,3.66c-0.92,1.52-1.99,2.97-3.21,4.35l-0.37,19.75c-0.12,6.37,0.77,10.89,2.92,14.87 c2.18,4.05,5.69,7.67,10.75,12.16c1.34,1.19,2.77,2.19,4.26,3.01C31.65,88.85,31.83,88.93,31.98,89.03L31.98,89.03L31.98,89.03z M33.33,76.93l-1.13-2.94h21.79l-0.98,2.94H33.33L33.33,76.93z"/></g></svg>